<svg xmlns="http://www.w3.org/2000/svg" width="24" height="23" viewBox="0 0 24 23">
    <g fill="none" fill-rule="evenodd">
        <path fill-rule="nonzero" stroke="#979797" d="M11.78 1C5.84 1 1 5.84 1 11.781c0 3.3 1.509 6.287 3.834 8.236.032.031.063.031.063.063.094.094.189.157.314.251l.378.283c.125.094.251.157.377.251h.031c.126.095.252.158.409.252h.031c.126.063.252.157.377.22.032 0 .063.031.063.031.126.063.252.126.346.158.126.062.283.125.44.188.126.063.283.126.408.157h.032c.157.063.283.095.44.158h.031c.126.03.283.094.409.125.44.126.911.22 1.383.283h.031c.126 0 .252.032.377.032h.095c.125 0 .282.031.408.031h.943c.126 0 .283 0 .409-.031h.094c.126 0 .251-.032.377-.032h.031a9.794 9.794 0 0 0 1.383-.283c.126-.031.283-.063.409-.125h.031c.157-.063.283-.095.44-.158h.032c.125-.063.283-.094.408-.157.157-.063.283-.126.44-.188.126-.063.252-.126.346-.158.031-.031.063-.031.063-.031.126-.063.251-.126.377-.22h.031c.126-.063.252-.157.409-.252h.031c.126-.094.252-.157.378-.251l.377-.283c.094-.063.188-.157.314-.251.031-.032.063-.032.063-.063a10.62 10.62 0 0 0 3.897-8.236C22.56 5.841 17.72 1 11.78 1z"/>
        <path fill="#9B9B9B" d="M8.408 5a.289.289 0 0 0-.257.294v.844H6.616C5.731 6.138 5 6.867 5 7.754V16.1c0 .887.73 1.616 1.616 1.616H16.1A1.62 1.62 0 0 0 17.71 16.1V9.528 9.51 7.754A1.62 1.62 0 0 0 16.1 6.138h-1.585v-.844a.289.289 0 1 0-.577 0v.844h-5.21v-.844A.289.289 0 0 0 8.436 5h-.027zM6.616 6.716h1.535v.844a.289.289 0 1 0 .578 0v-.844h5.209v.844a.289.289 0 1 0 .577 0v-.844H16.1c.57 0 1.034.465 1.034 1.038V9.22H5.578V7.754a1.04 1.04 0 0 1 1.038-1.038z"/>
    </g>
</svg>
