<svg xmlns="http://www.w3.org/2000/svg" width="16" height="16" viewBox="0 0 16 16">
    <g fill="none" fill-rule="evenodd" transform="matrix(1 0 0 -1 0 16)">
        <circle cx="8" cy="8" r="8" fill="#F8F8F9"/>
        <path fill="#D60000" d="M8 9.018l2.335-2.19a.729.729 0 0 1 .987 0l-.044-.04a.628.628 0 0 1 0 .924l-2.785 2.611a.698.698 0 0 1-.022.02.698.698 0 0 1-.022.021l.044-.041a.736.736 0 0 1-.964.02.676.676 0 0 0 .022.021l-.044-.04-2.785-2.612a.624.624 0 0 1 0-.925l-.044.042a.735.735 0 0 1 .987 0L8 9.017z"/>
    </g>
</svg>
