<svg xmlns="http://www.w3.org/2000/svg" width="35" height="35" viewBox="0 0 35 35">
    <path fill="#646364" fill-rule="evenodd" d="M5.543 5.543c-2.193 2.192-3.68 4.8-4.459 7.82a16.738 16.738 0 0 0 0 8.771c.78 3.021 2.266 5.628 4.459 7.82 2.192 2.194 4.8 3.68 7.82 4.46 2.924.779 5.848.779 8.771 0 3.021-.78 5.628-2.266 7.82-4.46 2.194-2.192 3.68-4.799 4.46-7.82.779-2.923.779-5.847 0-8.77-.78-3.022-2.266-5.629-4.46-7.821-2.192-2.193-4.799-3.68-7.82-4.459a16.738 16.738 0 0 0-8.77 0c-3.022.78-5.629 2.266-7.821 4.459zm18.345 21.342l-6.14-6.14-6.139 6.14-2.997-2.997 6.14-6.14-6.14-6.139 2.997-2.997 6.14 6.14 6.14-6.14 2.996 2.997-6.14 6.14 6.14 6.14-2.997 2.996z"/>
</svg>
