<svg xmlns="http://www.w3.org/2000/svg" width="24" height="23" viewBox="0 0 24 23">
    <g fill="none" fill-rule="nonzero">
        <path fill="#000" d="M14.797 21.41zm-4.211.333z"/>
        <path stroke="#979797" d="M11.78 1C5.84 1 1 5.84 1 11.781c0 3.3 1.509 6.287 3.834 8.236.032.031.063.031.063.063.094.094.189.157.314.251l.378.283c.125.094.251.157.377.251h.031c.126.095.252.158.409.252h.031c.126.063.252.157.377.22.032 0 .063.031.063.031.126.063.252.126.346.158.126.062.283.125.44.188.126.063.283.126.408.157h.032c.157.063.283.095.44.158h.031c.126.03.283.094.409.125.44.126.911.22 1.383.283h.031c.126 0 .252.032.377.032h.095c.125 0 .282.031.408.031h.943c.126 0 .283 0 .409-.031h.094c.126 0 .251-.032.377-.032h.031a9.794 9.794 0 0 0 1.383-.283c.126-.031.283-.063.409-.125h.031c.157-.063.283-.095.44-.158h.032c.125-.063.283-.094.408-.157.157-.063.283-.126.44-.188.126-.063.252-.126.346-.158.031-.031.063-.031.063-.031.126-.063.251-.126.377-.22h.031c.126-.063.252-.157.409-.252h.031c.126-.094.252-.157.378-.251l.377-.283c.094-.063.188-.157.314-.251.031-.032.063-.032.063-.063a10.62 10.62 0 0 0 3.897-8.236C22.56 5.841 17.72 1 11.78 1z"/>
        <g fill="#9B9B9B">
            <path d="M5.31 7.643c-.11.18-.168.385-.167.595v7.524c0 .215.063.426.18.606l4.887-4.013a.175.175 0 0 0 0-.267l-4.9-4.445zM13.79 12.355l4.892 4.013c.117-.18.18-.391.18-.606V8.238a1.118 1.118 0 0 0-.167-.595l-4.912 4.445a.175.175 0 0 0 .007.267zM13.375 12.667a.177.177 0 0 0-.23 0l-.167.151a1.45 1.45 0 0 1-1.953 0l-.167-.151a.177.177 0 0 0-.23 0L5.677 16.72l-.025.02h.06c.167.096.357.147.55.147h11.476c.193 0 .383-.05.55-.147h.06l-.025-.02-4.948-4.053z"/>
            <path d="M10.758 11.905l.189.167.186.166.225.205c.364.33.92.33 1.284 0l.225-.205.186-.166.189-.167 5.091-4.617.034-.028h-.082a1.102 1.102 0 0 0-.55-.147H6.262a1.175 1.175 0 0 0-.57.109l-.062.038.033.028 5.095 4.617z"/>
        </g>
    </g>
</svg>
