<svg xmlns="http://www.w3.org/2000/svg" width="22" height="21" viewBox="0 0 22 21">
    <g fill="none" fill-rule="nonzero">
        <path fill="#000" d="M13.797 20.41zm-4.211.333z"/>
        <path fill="#9B9B9B" d="M11 .21C5.06.21.22 4.825.22 10.49c0 3.147 1.509 5.994 3.834 7.852.032.03.063.03.063.06.094.09.189.15.314.24l.378.27c.125.09.251.15.377.24h.031c.126.09.252.15.409.24h.031c.126.06.252.15.377.21.032 0 .063.029.063.029.126.06.252.12.346.15.126.06.283.12.44.18.126.06.283.12.408.15h.032c.157.06.283.09.44.15h.031c.126.03.283.09.409.12.44.12.911.21 1.383.269h.031c.126 0 .252.03.377.03h.095c.125 0 .282.03.408.03h.943c.126 0 .283 0 .409-.03h.094c.126 0 .251-.03.377-.03h.031c.472-.06.943-.15 1.383-.27.126-.03.283-.06.409-.12h.031c.157-.06.283-.09.44-.15h.032c.125-.06.283-.09.408-.15.157-.06.283-.12.44-.18.126-.06.252-.119.346-.149.031-.03.063-.03.063-.03.126-.06.251-.12.377-.21h.031c.126-.06.252-.15.409-.24h.031c.126-.09.252-.15.378-.24l.377-.269c.094-.06.188-.15.314-.24.031-.03.063-.03.063-.06 2.388-1.858 3.897-4.705 3.897-7.852C21.78 4.825 16.94.21 11 .21zm6.663 17.533c-.22-.09-.44-.18-.692-.27-1.728-.6-2.577-1.109-2.922-1.858 3.205-.75 3.582-2.668 3.614-2.727.031-.12-.032-.24-.157-.3-.063-.03-1.603-1.05-1.603-3.627 0-2.787-.566-5.664-4.872-5.664-4.305 0-4.902 2.877-4.902 5.694 0 2.578-1.54 3.567-1.603 3.627a.364.364 0 0 0-.157.3c0 .09.377 1.978 3.614 2.727-.377.72-1.226 1.259-2.923 1.858-.251.09-.471.18-.691.27C2.23 16.005.91 13.397.91 10.52.911 5.185 5.47.87 11.031.87c5.563 0 10.089 4.285 10.089 9.62 0 2.907-1.351 5.485-3.457 7.253z"/>
    </g>
</svg>
