<svg xmlns="http://www.w3.org/2000/svg" width="25" height="25" viewBox="0 0 25 25">
    <g fill="none" fill-rule="evenodd">
        <rect width="25" height="25" fill="#9B9B9B" rx="12.5"/>
        <path fill="#FFF" fill-rule="nonzero" stroke="#FFF" stroke-width=".5" d="M13.906 12.648c0-.112.056-.275.125-.364l4.281-5.551c.138-.18.072-.325-.153-.325H7.629c-.223 0-.293.144-.153.325l4.281 5.55a.69.69 0 0 1 .125.365v5.803c0 .565.45 1.022 1.012 1.022.56 0 1.012-.455 1.012-1.022v-5.803zm.405 0v5.803c0 .791-.634 1.43-1.417 1.43-.785 0-1.417-.639-1.417-1.43v-5.803a.333.333 0 0 0-.04-.114l-4.28-5.55C6.81 6.536 7.067 6 7.629 6h10.53c.565 0 .816.538.473.984l-4.282 5.55a.344.344 0 0 0-.039.114z"/>
    </g>
</svg>
