<svg xmlns="http://www.w3.org/2000/svg" width="22" height="22" viewBox="0 0 22 22">
    <g fill="#9B9B9B" fill-rule="nonzero">
        <path d="M7.731 21.393c-.251-.143-.534-.287-.785-.43a3.2 3.2 0 0 0 .785.43zM11 .251C5.06.251.251 5.091.251 11c0 3.614 1.792 6.82 4.526 8.769.126.094.22.157.346.22.094.062.188.125.251.157.095.063.22.125.315.188.125.063.22.126.345.189.095.031.189.094.252.126.22.094.44.188.628.282.252.095.503.189.786.283.126.032.251.095.409.126.125.031.282.063.408.094l.377.095h.032c.125.031.22.031.345.062.315.063.598.095.912.095.126 0 .251.031.377.031h.817c.126 0 .252 0 .377-.031l.912-.095c.125 0 .22-.031.345-.062h.032c.283-.063.534-.126.786-.189 4.557-1.257 7.888-5.437 7.888-10.371C21.75 5.06 16.94.25 11 .25zm6.003 18.889c-2.577-.974-2.986-1.791-2.986-3.3 0-.409.094-.534.252-.786.22-.314.534-.754.722-1.917.032-.157.063-.188.22-.251.409-.189.755-.472.849-1.729 0-.597-.22-.911-.377-1.1.126-.786.471-3.677-.629-4.934-.691-.786-1.697-.912-2.105-.943-.378-.409-1.226-.66-2.169-.66-.786 0-1.571.157-2.389.503C5.846 5.029 5.846 7.229 6.16 9.05c.063.409.126.786.157.975-.188.157-.377.503-.377 1.1.094 1.257.471 1.54.849 1.728.157.063.188.095.188.252.22 1.163.534 1.603.754 1.917.158.251.252.377.252.786 0 1.54-.409 2.325-2.986 3.3A10.057 10.057 0 0 1 .88 11C.88 5.437 5.406.88 11 .88 16.594.88 21.12 5.437 21.12 11c0 3.331-1.634 6.286-4.117 8.14z"/>
    </g>
</svg>
