<svg xmlns="http://www.w3.org/2000/svg" width="22" height="22" viewBox="0 0 22 22">
    <path fill="#9B9B9B" fill-rule="nonzero" d="M11 22C4.922 22 0 17.078 0 11S4.922 0 11 0s11 4.922 11 11-4.922 11-11 11zM11 .687A10.443 10.443 0 0 0 .55 11.137c0 1.887.522 3.687 1.393 5.226A11.614 11.614 0 0 1 11 12.008c3.657 0 6.938 1.684 9.057 4.355.9-1.539 1.393-3.31 1.393-5.226C21.45 5.361 16.777.688 11 .688zm0 10.038a3.861 3.861 0 0 1-3.85-3.85A3.861 3.861 0 0 1 11 3.025a3.861 3.861 0 0 1 3.85 3.85 3.861 3.861 0 0 1-3.85 3.85z"/>
</svg>
