<svg xmlns="http://www.w3.org/2000/svg" width="24" height="23" viewBox="0 0 24 23">
    <g fill="none" fill-rule="evenodd">
        <path fill="#000" fill-rule="nonzero" d="M14.797 21.41zm-4.211.333z"/>
        <path fill-rule="nonzero" stroke="#979797" d="M11.78 1C5.84 1 1 5.84 1 11.781c0 3.3 1.509 6.287 3.834 8.236.032.031.063.031.063.063.094.094.189.157.314.251l.378.283c.125.094.251.157.377.251h.031c.126.095.252.158.409.252h.031c.126.063.252.157.377.22.032 0 .063.031.063.031.126.063.252.126.346.158.126.062.283.125.44.188.126.063.283.126.408.157h.032c.157.063.283.095.44.158h.031c.126.03.283.094.409.125.44.126.911.22 1.383.283h.031c.126 0 .252.032.377.032h.095c.125 0 .282.031.408.031h.943c.126 0 .283 0 .409-.031h.094c.126 0 .251-.032.377-.032h.031a9.794 9.794 0 0 0 1.383-.283c.126-.031.283-.063.409-.125h.031c.157-.063.283-.095.44-.158h.032c.125-.063.283-.094.408-.157.157-.063.283-.126.44-.188.126-.063.252-.126.346-.158.031-.031.063-.031.063-.031.126-.063.251-.126.377-.22h.031c.126-.063.252-.157.409-.252h.031c.126-.094.252-.157.378-.251l.377-.283c.094-.063.188-.157.314-.251.031-.032.063-.032.063-.063a10.62 10.62 0 0 0 3.897-8.236C22.56 5.841 17.72 1 11.78 1z"/>
        <path fill="#9B9B9B" d="M10.51 9.53c-.767.342 1.329 4.858 2.083 4.496 1.601-.773 1.972-1.997 3.684.44 1.348 1.92 1.574 2.756 1.612 3 .126.529-2.358 3.431-4.242 1.994-5.329-4.072-6.94-7.546-6.605-14.244.103-2.06 3.515-2.556 4.202-2.01.002.003.576.438 1.307 3.23.755 2.879-.419 2.372-2.04 3.095z"/>
    </g>
</svg>
