<svg xmlns="http://www.w3.org/2000/svg" width="11" height="11" viewBox="0 0 11 11">
    <path fill="#FFF" fill-rule="nonzero" d="M5.295.24h.02c.011-.002.016 0 .023 0 1.32 0 2.603.522 3.55 1.442L9.936.623a.17.17 0 0 1 .187-.039c.065.027.111.091.111.162l-.175 3.616H6.65a.175.175 0 0 1-.086-.327l1.032-1.043a3.244 3.244 0 0 0-2.285-.912c-1.784.01-3.238 1.473-3.238 3.285.013 1.775 1.464 3.219 3.267 3.232a3.285 3.285 0 0 0 2.813-1.92l1.671.77-.011.024c-1.145 2.213-2.949 3.146-4.884 2.947C2.322 10.211.252 8.026.234 5.34c0-2.79 2.268-5.075 5.06-5.1z"/>
</svg>
