<svg xmlns="http://www.w3.org/2000/svg" width="20" height="20" viewBox="0 0 20 20">
    <g fill="none" fill-rule="evenodd">
        <rect width="20.32" height="20.32" fill="#9B9B9B" rx="10.16"/>
        <path fill="#FFF" fill-rule="nonzero" d="M8.941 4.781a.608.608 0 0 0-.605.605v.202H6.66a.593.593 0 0 0-.548.403.837.837 0 0 0-.8.82.202.202 0 0 0 .202.188h8.468a.202.202 0 0 0 .201-.189.837.837 0 0 0-.8-.819.593.593 0 0 0-.548-.403H11.16v-.202a.608.608 0 0 0-.605-.605H8.941zm0 .404h1.613c.112 0 .202.09.202.201v.202H8.74v-.202c0-.112.09-.201.201-.201zM5.772 7.403l.995 6.804a.76.76 0 0 0 .763.656h4.436c.373 0 .677-.258.762-.656l.996-6.804H5.772zm1.411.667a.2.2 0 0 1 .227.17l.662 5.022a.2.2 0 0 1-.17.227c-.009.002-.023 0-.032 0a.193.193 0 0 1-.195-.17l-.668-5.022a.204.204 0 0 1 .176-.227zm1.708 0a.204.204 0 0 1 .214.19l.22 5.021a.202.202 0 0 1-.195.208h-.006a.2.2 0 0 1-.202-.189l-.22-5.022a.197.197 0 0 1 .189-.208zm1.714 0a.197.197 0 0 1 .189.208l-.22 5.022a.2.2 0 0 1-.202.19h-.007a.202.202 0 0 1-.195-.209l.22-5.022c.005-.11.105-.19.215-.189zm1.707 0c.11.015.192.117.177.227l-.668 5.022a.193.193 0 0 1-.196.17c-.008 0-.022.002-.031 0a.2.2 0 0 1-.17-.227l.661-5.021a.2.2 0 0 1 .227-.17z"/>
    </g>
</svg>
